<?xml version="1.0" encoding="utf-8"?>
<!-- Generator: Adobe Illustrator 26.2.1, SVG Export Plug-In . SVG Version: 6.00 Build 0)  -->
<svg version="1.1" id="Layer_1" xmlns="http://www.w3.org/2000/svg" xmlns:xlink="http://www.w3.org/1999/xlink" x="0px" y="0px"
	 viewBox="0 0 141.7 141.7" style="enable-background:new 0 0 141.7 141.7;" xml:space="preserve">
<style type="text/css">
	.st0{fill-rule:evenodd;clip-rule:evenodd;}
</style>
<g>
	<path class="st0" d="M139.3,89.3C149.4,51.5,127,12.5,89.2,2.4S12.4,14.7,2.3,52.5c-1,3.6-1.7,7.3-2,11h12
		c4.1-32.2,33.5-55,65.7-50.9c21.5,2.7,39.8,17.1,47.5,37.4L113.8,53c-5.3-12.7-15.9-22.4-29-26.5l-2.2,12.1
		c17.8,6.5,26.9,26.2,20.4,44c-3.1,8.5-9.4,15.4-17.6,19.2l3.2,11.9c19.4-8,31.1-28.1,28.3-49l11.6-3.1c1.2,7.8,0.9,15.7-1.1,23.3
		L139.3,89.3z"/>
	<path d="M89.1,139.3C51.3,149.5,12.4,127,2.2,89.2C1.1,84.9,0.3,80.5,0,76h12c0.3,3.3,0.9,6.7,1.8,9.9c0.9,3.4,2.1,6.7,3.6,9.9
		l10.7-6.4c-10.2-23.6,0.7-51,24.3-61.2c6.4-2.8,13.4-4.1,20.4-3.8l-2.2,12.1c-19,0.1-34.3,15.5-34.2,34.5c0,2.9,0.4,5.8,1.2,8.7
		c0.3,1.1,0.6,2.2,1.1,3.2l13.7-8.2l-4.1-10.9l12.9-13.2l16.3-3.5l4.7,5.8l-7.5,7.6L68,62.7l-4.7,4.8l2.3,6.4c0,0,4.6,4.9,4.7,4.9
		l6.6-1.7l4.7-5.1l10.2-3.2l3,6.8L84.3,88.4L66.6,94l-7.9-8.8l-13.8,8.3c7.2,8.2,17.9,12.5,28.7,11.6l3.2,11.9
		c-16.2,2.1-32.3-4.4-42.5-17.2l-10.6,6.4c19.7,25.8,56.6,30.8,82.4,11.1c7.3-5.5,13.2-12.7,17.2-20.9l11.8,4.3
		C126.3,119.8,109.4,133.9,89.1,139.3z"/>
</g>
</svg>
